<svg class="colorWheel" fill="#000000" version="1.1" id="Capa_1" xmlns="http://www.w3.org/2000/svg" xmlns:xlink="http://www.w3.org/1999/xlink" 
	 width="800px" height="800px" viewBox="0 0 302.991 302.992"
	 xml:space="preserve">
<g>
	<g>
		<path d="M5.883,113.306c0.366,0.63,0.976,1.083,1.685,1.258L61.8,127.934c0.221,0.053,0.438,0.079,0.646,0.079
			c1.168,0,2.236-0.759,2.587-1.922c3.75-12.456,10.336-24.208,19.048-33.987c0.965-1.086,0.901-2.737-0.143-3.742l-40.255-38.67
			c-0.53-0.501-1.221-0.83-1.956-0.751c-0.728,0.023-1.414,0.337-1.907,0.875C23.799,67.282,11.974,88.513,5.616,111.215
			C5.419,111.917,5.514,112.673,5.883,113.306z M41.948,55.519L78.34,90.48c-7.831,9.292-13.906,20.131-17.708,31.606
			l-49.043-12.092C17.616,89.992,28.055,71.266,41.948,55.519z"/>
		<path d="M106.537,7.46c-22.399,6.951-43.227,19.288-60.215,35.683c-0.535,0.509-0.825,1.215-0.825,1.943
			c0,0.736,0.3,1.437,0.825,1.946L86.611,85.72c0.524,0.504,1.199,0.752,1.875,0.752c0.654,0,1.313-0.237,1.83-0.712
			c9.542-8.791,21.083-15.546,33.395-19.533c1.387-0.448,2.165-1.922,1.761-3.319l-15.53-53.628
			c-0.201-0.696-0.675-1.282-1.313-1.625C107.969,7.312,107.235,7.244,106.537,7.46z M119.557,61.94
			c-11.312,4.019-21.95,10.238-31.013,18.153L52.107,45.096c15.325-14.222,33.689-25.099,53.415-31.643L119.557,61.94z"/>
		<path d="M260.813,47.295c-0.506-0.53-1.207-0.833-1.94-0.833c-0.738,0-1.444,0.303-1.945,0.833L218.23,87.584
			c-0.985,1.025-1.007,2.642-0.047,3.694c8.554,9.363,14.929,20.205,18.947,32.226c0.38,1.123,1.429,1.843,2.568,1.843
			c0.242,0,0.495-0.035,0.749-0.108l53.651-15.544c0.696-0.203,1.287-0.68,1.635-1.321c0.338-0.643,0.411-1.4,0.19-2.091
			C288.953,84.365,276.813,63.965,260.813,47.295z"/>
		<path d="M3.375,120.269C1.134,130.737,0,141.466,0,152.166c0,13.01,1.659,25.935,4.926,38.422
			c0.185,0.702,0.643,1.303,1.273,1.662c0.411,0.231,0.87,0.348,1.334,0.348c0.256,0,0.509-0.031,0.751-0.101l53.639-15.54
			c1.392-0.406,2.22-1.83,1.872-3.233c-1.728-7.077-2.603-14.327-2.603-21.558c0-5.83,0.572-11.699,1.7-17.45
			c0.282-1.416-0.598-2.803-2.001-3.143l-54.227-13.36c-0.699-0.177-1.458-0.053-2.081,0.335
			C3.971,118.932,3.533,119.552,3.375,120.269z M8.1,124.126l49.033,12.079c-0.892,5.281-1.345,10.639-1.345,15.96
			c0,6.803,0.735,13.621,2.178,20.313L9.469,186.533C6.774,175.332,5.4,163.778,5.4,152.166C5.4,142.771,6.307,133.355,8.1,124.126z
			"/>
		<path d="M46.246,258.684c0.206,0.011,0.72-0.147,0.978-0.417l38.67-40.263c0.501-0.527,0.501-1.355-0.011-1.877
			c-9.229-9.461-16.427-21.025-20.812-33.444c-0.243-0.675-0.968-1.044-1.648-0.844L9.759,197.38c-0.351,0.1-0.648,0.343-0.815,0.67
			c-0.174,0.321-0.206,0.701-0.092,1.049c7.291,22.154,19.894,42.62,36.445,59.189C45.544,258.546,45.884,258.684,46.246,258.684z
			 M62.955,184.782c4.401,11.923,11.314,23.034,20.089,32.284l-36.814,38.333c-15.448-15.763-27.306-35.011-34.375-55.819
			L62.955,184.782z"/>
		<path d="M194.084,6.746c-0.707-0.203-1.466-0.119-2.109,0.256c-0.633,0.366-1.097,0.976-1.276,1.695l-13.373,54.269
			c-0.343,1.376,0.442,2.782,1.793,3.22c12.191,3.913,23.203,10.249,32.753,18.834c0.512,0.464,1.16,0.69,1.804,0.69
			c0.712,0,1.418-0.279,1.945-0.83l38.654-40.252c0.507-0.522,0.781-1.227,0.76-1.949c-0.021-0.725-0.338-1.41-0.87-1.9
			C237.067,25.004,216.285,13.237,194.084,6.746z"/>
		<path d="M185.056,4.404c-22.729-5.142-46.841-4.954-69.538,0.578c-0.717,0.171-1.329,0.63-1.695,1.268
			c-0.367,0.638-0.464,1.397-0.259,2.107l15.552,53.686c0.345,1.171,1.416,1.949,2.597,1.949c0.19,0,0.377-0.016,0.567-0.058
			c12.625-2.731,25.671-2.745,38.264-0.045c1.445,0.319,2.837-0.577,3.186-1.99l13.353-54.211c0.179-0.702,0.062-1.448-0.322-2.065
			C186.374,5.002,185.768,4.565,185.056,4.404z M169.099,58.09c-11.729-2.188-23.757-2.173-35.485,0.058L119.541,9.587
			c20.184-4.498,41.437-4.656,61.634-0.498L169.099,58.09z"/>
		<path d="M121.912,299.384c9.692,1.94,19.651,2.922,29.586,2.922c13.197,0,26.322-1.725,38.994-5.126
			c0.354-0.095,0.649-0.327,0.828-0.644c0.18-0.312,0.222-0.686,0.116-1.033l-15.53-53.604c-0.2-0.707-0.928-1.113-1.63-0.939
			c-12.382,3.164-25.407,3.75-38.504,1.487c-0.738-0.132-1.371,0.322-1.545,1.013l-13.373,54.279
			c-0.087,0.354-0.029,0.733,0.171,1.044C121.226,299.094,121.545,299.316,121.912,299.384z M136.556,245.316
			c12.63,2.02,25.144,1.461,37.12-1.424l14.781,51.031c-20.973,5.415-43.337,6.138-64.639,2.088L136.556,245.316z"/>
		<path d="M112.91,297.296c0.114,0.026,0.232,0.042,0.345,0.042c0.243,0,0.48-0.063,0.691-0.19c0.313-0.185,0.535-0.484,0.622-0.838
			l13.357-54.206c0.174-0.712-0.248-1.429-0.954-1.624c-12.738-3.528-24.348-9.656-34.497-18.209
			c-0.551-0.459-1.355-0.412-1.846,0.1l-38.696,40.295c-0.253,0.264-0.388,0.622-0.372,0.991c0.016,0.369,0.176,0.712,0.453,0.96
			C69.462,280.052,90.516,291.353,112.91,297.296z M91.721,225.145c9.869,8.1,21.054,14.006,33.273,17.571l-12.712,51.61
			c-21.049-5.801-40.846-16.421-57.412-30.807L91.721,225.145z"/>
		<path d="M299.695,183.685c2.188-10.336,3.296-20.936,3.296-31.52c0-12.45-1.524-24.864-4.535-36.911
			c-0.18-0.712-0.639-1.324-1.276-1.685c-0.628-0.361-1.393-0.448-2.099-0.253l-53.674,15.546c-1.376,0.398-2.204,1.798-1.888,3.196
			c1.519,6.631,2.283,13.397,2.283,20.107c0,5.674-0.554,11.428-1.64,17.086c-0.264,1.408,0.611,2.784,2.004,3.133l54.232,13.362
			c0.221,0.053,0.432,0.079,0.653,0.079c0.496,0,0.997-0.137,1.435-0.411C299.109,185.025,299.542,184.402,299.695,183.685z"/>
		<path d="M198.281,294.438c0.19,0.1,0.406,0.152,0.622,0.152c0.143,0,0.296-0.021,0.428-0.073
			c21.647-7.267,41.697-19.665,57.981-35.849c0.258-0.254,0.4-0.606,0.4-0.966c-0.011-0.363-0.152-0.712-0.422-0.959l-40.268-38.676
			c-0.517-0.506-1.34-0.506-1.867,0c-9.339,9.018-20.187,15.825-32.273,20.234c-0.664,0.242-1.022,0.96-0.833,1.64l15.557,53.668
			C197.717,293.974,197.949,294.264,198.281,294.438z M216.095,220.905l38.338,36.819c-15.482,15.093-34.309,26.741-54.622,33.781
			l-14.808-51.109C196.562,236.002,207.009,229.453,216.095,220.905z"/>
		<path d="M262.659,253.764c0.032,0,0.069,0,0.101-0.006c0.733-0.026,1.429-0.348,1.914-0.901
			c15.335-17.224,26.679-38.017,32.812-60.117c0.189-0.701,0.095-1.456-0.274-2.083c-0.369-0.633-0.976-1.087-1.688-1.261
			l-54.222-13.363c-1.45-0.348-2.821,0.47-3.237,1.852c-3.586,12.081-9.566,23.092-17.761,32.737
			c-0.923,1.081-0.844,2.705,0.185,3.696l40.294,38.697C261.288,253.495,261.964,253.764,262.659,253.764z"/>
	</g>
</g>
</svg>
