<svg class="colorWheel" xmlns="http://www.w3.org/2000/svg" xmlns:xlink="http://www.w3.org/1999/xlink" fill="#000000" height="64px" width="64px" version="1.1" id="Layer_1" viewBox="0 0 480.002 480.002" xml:space="preserve" stroke="#000000" stroke-width="9.600040000000002">
 <g id="SVGRepo_bgCarrier" stroke-width="0"/>
 <g id="SVGRepo_tracerCarrier" stroke-linecap="round" stroke-linejoin="round"/>
 <g id="SVGRepo_iconCarrier">
  <g>
   <g>
    <g>
     <path d="M191.8,441.105c22.3,0,40.442-18.143,40.442-40.442c0-22.3-18.142-40.442-40.442-40.442 c-22.3,0-40.442,18.142-40.442,40.442C151.358,422.963,169.5,441.105,191.8,441.105z M191.8,380.221 c11.272,0,20.442,9.17,20.442,20.442s-9.171,20.442-20.442,20.442s-20.442-9.17-20.442-20.442 C171.358,389.392,180.528,380.221,191.8,380.221z"/>
     <path d="M450.641,135.091c-1.004-2.742-3.157-4.909-5.892-5.93l-88.105-32.894l6.882-28.225c0.633-2.595,0.201-5.335-1.198-7.609 c-1.399-2.275-3.65-3.895-6.251-4.5l-90.854-21.137V10c0-5.523-4.477-10-10-10H38.751c-5.523,0-10,4.477-10,10v460 c0,5.523,4.477,10,10,10h216.431c0.011,0,0.021,0.002,0.031,0.002c0.001,0,0.003,0,0.004,0c0.004,0,0.008,0,0.013,0 c0.324,0,0.645-0.02,0.964-0.051c0.069-0.007,0.137-0.019,0.205-0.026c0.003-0.001,0.007-0.001,0.011-0.001 c0.067-0.008,0.135-0.016,0.202-0.026c0.164-0.023,0.327-0.049,0.489-0.08c0.109-0.021,0.217-0.045,0.325-0.069 c0.118-0.026,0.236-0.051,0.353-0.081c0.022-0.006,0.043-0.014,0.066-0.02c0.044-0.012,0.088-0.027,0.133-0.04 c0.124-0.035,0.247-0.071,0.369-0.111c0.163-0.054,0.323-0.115,0.483-0.177c0.045-0.017,0.091-0.032,0.136-0.05 c0.026-0.01,0.053-0.018,0.079-0.029c0.054-0.022,0.106-0.046,0.159-0.069c0.181-0.079,0.355-0.166,0.531-0.255 c0.129-0.065,0.258-0.13,0.384-0.201c0.079-0.044,0.155-0.093,0.233-0.14c0.131-0.079,0.263-0.155,0.391-0.239 c0.097-0.064,0.19-0.135,0.284-0.202c0.046-0.033,0.093-0.065,0.139-0.1c0.057-0.042,0.116-0.079,0.171-0.122 c0.049-0.037,0.094-0.079,0.142-0.117c0.087-0.07,0.171-0.143,0.256-0.216c0.15-0.129,0.296-0.261,0.439-0.398 c0.009-0.009,0.018-0.017,0.027-0.025c0.061-0.059,0.12-0.118,0.179-0.178c0.003-0.004,0.007-0.008,0.01-0.012 c0.149-0.153,0.292-0.312,0.432-0.475c0.057-0.066,0.115-0.131,0.17-0.199c0.056-0.069,0.113-0.138,0.167-0.209 c0.026-0.034,0.05-0.071,0.076-0.106c0.065-0.088,0.128-0.176,0.19-0.265c0.036-0.052,0.075-0.101,0.11-0.153 c0.132-0.197,0.254-0.401,0.372-0.608c0.011-0.02,0.025-0.036,0.037-0.056l0.049-0.088c0.01-0.018,0.021-0.036,0.03-0.054 l185.949-331.331C451.401,140.877,451.646,137.833,450.641,135.091z M48.751,20h88.232v88.232H48.751V20z M48.751,128.232h88.232 v88.239H48.751V128.232z M48.751,236.471h88.232v88.232H48.751V236.471z M245.222,460H48.751V344.703h196.471V460z M245.222,324.703h-88.239v-88.232h88.239V324.703z M245.222,216.471h-88.239v-88.239h88.239V216.471z M245.222,108.232h-88.239 V20h88.239V108.232z M265.222,55.331l76.479,17.792l-76.479,313.652V55.331z M282.233,401.44l69.64-285.606l74.945,27.981 L282.233,401.44z"/>
    </g>
   </g>
  </g>
 </g>
</svg>

